<?xml version="1.0" encoding="UTF-8"?>
<!-- Uploaded to: SVG Find, www.svgfind.com, Generator: SVG Find Mixer Tools -->
<svg fill="#000000" width="800px" height="800px" version="1.1" viewBox="144 144 512 512" xmlns="http://www.w3.org/2000/svg">
 <g>
  <path d="m409.33 258.19h-18.66v46.648h18.66z"/>
  <path d="m255.02 314.61-13.195 13.195 30.414 30.41 13.195-13.191z"/>
  <path d="m614.58 482.1h-37.316v-18.66h27.801c-4.8516-108.88-94.977-195.93-205.07-195.93-110.09 0-200.12 87.047-205.07 195.93h37.133v18.66h-46.648c-5.1328 0-9.332-4.1992-9.332-9.332 0-123.43 100.48-223.91 223.92-223.91s223.91 100.48 223.91 223.91c0 5.1328-4.1992 9.332-9.332 9.332z"/>
  <path d="m546.18 314.66-30.41 30.414 13.195 13.195 30.41-30.414z"/>
  <path d="m401.4 556.73c-14.086 0-28.176-6.1562-37.598-17.91-7.9297-9.9844-11.57-22.395-10.078-35.082 1.4922-12.688 7.8398-23.977 17.914-31.906 11.664-9.1445 26.684-12.41 40.957-8.957l115.88-65.777 19.223 29.109-98.43 83.316c-0.09375 14.367-6.625 27.895-18.102 36.945-8.7695 6.9062-19.312 10.262-29.762 10.262zm-0.1875-76.504c-6.5312 0-12.875 2.1484-18.098 6.2539-6.1602 4.8516-9.9844 11.66-10.824 19.402-0.83984 7.6523 1.3086 15.211 6.1562 21.273 10.078 12.594 28.551 14.648 41.238 4.6641 7.7461-6.1562 11.852-15.672 10.824-25.469l-0.46484-4.8516 93.016-78.742-0.46484-0.75-107.76 61.207-3.918-1.3086c-3.1719-1.0273-6.3438-1.5859-9.6094-1.5859z"/>
 </g>
</svg>