<?xml version="1.0" encoding="UTF-8"?>
<!-- Uploaded to: SVG Find, www.svgfind.com, Generator: SVG Find Mixer Tools -->
<svg fill="#000000" width="800px" height="800px" version="1.1" viewBox="144 144 512 512" xmlns="http://www.w3.org/2000/svg">
 <g>
  <path d="m623.91 506.36h-186.6v-18.66h167.94v-9.332c0-113.17-92.086-205.25-205.25-205.25-113.17 0-205.26 92.086-205.26 205.25v9.332h167.94v18.66h-186.6v-27.992c0-123.43 100.48-223.91 223.92-223.91s223.91 100.48 223.91 223.91z"/>
  <path d="m400 543.68c-25.75 0-46.648-20.898-46.648-46.648s20.898-46.648 46.648-46.648 46.648 20.898 46.648 46.648-20.898 46.648-46.648 46.648zm0-74.637c-15.395 0-27.992 12.594-27.992 27.988 0 15.395 12.598 27.992 27.992 27.992s27.988-12.598 27.988-27.992c0-15.395-12.594-27.988-27.988-27.988z"/>
  <path d="m520.43 363.32-100.61 100.61 13.195 13.195 100.61-100.61z"/>
 </g>
</svg>